<?xml version="1.0" encoding="utf-8"?>
<!-- Generator: Adobe Illustrator 28.0.0, SVG Export Plug-In . SVG Version: 6.00 Build 0)  -->
<svg version="1.1" id="Layer_1" xmlns="http://www.w3.org/2000/svg" xmlns:xlink="http://www.w3.org/1999/xlink" x="0px" y="0px"
	 viewBox="0 0 332.37 107.89" style="enable-background:new 0 0 332.37 107.89;" xml:space="preserve">
<style type="text/css">
	.st0{fill:#D7182D;}
</style>
<g>
	<path class="st0" d="M129.87,72.84h-13.98V30.91h13.98V72.84z M194.46,73.52c-13.38,0-21.82-8.22-21.82-21.65
		c0-13.37,8.5-21.59,21.82-21.59c13.31,0,21.87,8.22,21.87,21.59C216.33,65.36,207.84,73.52,194.46,73.52z M194.47,40.09
		c-6.11,0-8.24,5.58-8.24,11.78c0,6.31,2.04,11.78,8.24,11.78c6.2,0,8.29-5.47,8.29-11.78C202.76,45.62,200.57,40.09,194.47,40.09z
		 M310.54,30.91h-15.31l-15.8,20.97l15.8,20.97h15.32l-15.8-20.97L310.54,30.91z M316.49,36.13l-0.66-1.41h-0.39v1.41h-0.81v-3.65
		h1.48c0.73,0,1.22,0.54,1.22,1.15c0,0.5-0.32,0.83-0.67,0.97l0.76,1.53H316.49z M315.87,31.66c-1.48,0-2.61,1.13-2.61,2.66
		c0,1.52,1.13,2.66,2.61,2.66c1.48,0,2.61-1.14,2.61-2.66C318.48,32.79,317.35,31.66,315.87,31.66 M315.87,37.74
		c-1.9,0-3.42-1.53-3.42-3.43c0-1.89,1.52-3.43,3.42-3.43c1.89,0,3.43,1.53,3.43,3.43C319.3,36.21,317.76,37.74,315.87,37.74
		 M278.65,72.84h-13.98V30.91h13.98V72.84z M241.38,63.65c-6.21,0-8.24-5.47-8.24-11.78c0-6.2,2.13-11.78,8.24-11.78
		c3.89,0,6.86,2.19,8.39,5.44l10.52-4.9c-3.32-6.58-9.9-10.35-18.92-10.35c-13.32,0-21.82,8.22-21.82,21.59
		c0,13.43,8.44,21.65,21.82,21.65c9.04,0,15.6-3.73,18.91-10.3l-10.68-4.63C248.06,61.64,245.18,63.65,241.38,63.65z M93.87,30.91
		v21.91L76.42,30.91H63.2v41.93h13V51.66l16.88,21.18h13.8V30.91H93.87z M152.85,60.44V30.91h-13.98v42.05h31.51V60.44H152.85z
		 M55.01,30.91v27.96L41.03,72.84H13.08l13.98-13.98h13.98V30.91H55.01z M27.06,30.91H13.08v27.96l13.98-13.98V30.91z"/>
</g>
</svg>
